<?xml version="1.0" standalone="no"?>
<!DOCTYPE svg PUBLIC "-//W3C//DTD SVG 20010904//EN"
 "http://www.w3.org/TR/2001/REC-SVG-20010904/DTD/svg10.dtd">
<svg version="1.0" xmlns="http://www.w3.org/2000/svg"
 width="500.000000pt" height="500.000000pt" viewBox="0 0 500.000000 500.000000"
 preserveAspectRatio="xMidYMid meet">
<metadata>
Created by potrace 1.11, written by Peter Selinger 2001-2013
</metadata>
<g transform="translate(0.000000,500.000000) scale(0.100000,-0.100000)"
fill="#000000" stroke="none">
<path d="M2427 4404 c-1 -1 -51 -4 -112 -8 -752 -46 -1509 -431 -2056 -1046
-53 -60 -55 -65 -36 -84 6 -7 30 -35 52 -61 22 -27 45 -53 50 -59 6 -6 37 -43
70 -81 33 -39 72 -83 87 -100 16 -16 28 -34 28 -38 0 -4 69 61 153 145 345
347 684 560 1109 698 53 17 104 33 115 35 10 2 47 10 83 19 186 43 340 60 545
60 249 0 396 -19 630 -80 471 -122 884 -369 1249 -746 l123 -127 39 42 c22 23
61 69 89 102 27 33 52 62 55 65 15 13 130 151 130 156 0 5 -18 25 -150 163
-50 53 -151 148 -240 226 -19 17 -71 58 -115 90 -44 33 -82 62 -85 65 -6 6
-154 104 -215 142 -127 79 -374 196 -530 252 -244 87 -516 145 -760 162 -89 6
-303 12 -308 8z"/>
<path d="M2256 3194 c-523 -70 -1003 -329 -1379 -743 -47 -52 -47 -53 -30 -76
19 -25 155 -185 188 -222 l20 -22 136 132 c230 224 458 369 732 466 91 32 215
65 277 75 19 3 51 8 70 11 98 15 318 21 420 10 147 -15 377 -70 467 -111 17
-8 34 -14 38 -14 12 0 179 -82 250 -123 151 -87 260 -172 422 -333 l113 -111
47 56 c27 31 77 89 112 129 50 58 61 78 55 92 -10 20 -120 136 -200 211 -147
137 -351 276 -541 369 -70 34 -131 63 -137 65 -6 1 -18 5 -26 8 -54 23 -245
84 -287 92 -13 2 -58 10 -100 19 -135 26 -154 28 -353 31 -123 2 -232 -2 -294
-11z"/>
<path d="M2380 2233 c-209 -20 -446 -108 -644 -240 -95 -63 -320 -267 -314
-285 2 -4 52 -66 113 -137 l109 -129 94 89 c90 85 220 179 292 211 19 9 55 25
80 36 129 57 268 82 435 77 72 -2 144 -6 160 -10 148 -31 293 -90 412 -168 88
-58 124 -87 205 -169 l67 -67 33 39 c18 21 42 49 53 62 11 14 43 51 70 83 72
84 72 82 34 123 -172 185 -367 320 -580 402 -58 22 -219 65 -284 75 -45 8
-282 13 -335 8z"/>
<path d="M2413 1259 c-120 -20 -242 -83 -346 -179 l-57 -53 27 -36 c15 -19 34
-42 43 -51 14 -15 41 -46 117 -137 20 -24 39 -43 44 -43 4 0 22 14 40 31 93
87 240 117 359 73 50 -19 115 -61 143 -92 19 -21 20 -20 115 91 52 62 105 122
116 135 l21 23 -55 53 c-86 83 -195 145 -310 176 -57 16 -189 20 -257 9z"/>
</g>
</svg>
